<mxfile host="Electron" agent="Mozilla/5.0 (X11; Linux x86_64) AppleWebKit/537.36 (KHTML, like Gecko) draw.io/26.0.4 Chrome/128.0.6613.186 Electron/32.2.5 Safari/537.36" version="26.0.4">
  <diagram name="Page-1" id="fNgGqOuz8FhfoeSBeIUP">
    <mxGraphModel dx="2074" dy="1199" grid="1" gridSize="10" guides="1" tooltips="1" connect="1" arrows="1" fold="1" page="1" pageScale="1" pageWidth="1200" pageHeight="900" math="0" shadow="0">
      <root>
        <mxCell id="0" />
        <mxCell id="1" parent="0" />
        <mxCell id="Bql7_NC1n_iXx1I4UjfZ-20" value="&lt;font style=&quot;font-size: 25px;&quot;&gt;Executable&lt;/font&gt;" style="swimlane;whiteSpace=wrap;html=1;startSize=40;fillColor=#f8cecc;strokeColor=#b85450;strokeWidth=2;" parent="1" vertex="1">
          <mxGeometry x="940" y="240" width="200" height="320" as="geometry">
            <mxRectangle x="50" y="150" width="140" height="30" as="alternateBounds" />
          </mxGeometry>
        </mxCell>
        <mxCell id="Bql7_NC1n_iXx1I4UjfZ-19" value="&lt;font style=&quot;font-size: 25px;&quot;&gt;Object files&lt;/font&gt;" style="swimlane;whiteSpace=wrap;html=1;startSize=40;fillColor=#f8cecc;strokeColor=#b85450;strokeWidth=2;" parent="1" vertex="1">
          <mxGeometry x="500" y="240" width="200" height="320" as="geometry">
            <mxRectangle x="50" y="150" width="140" height="30" as="alternateBounds" />
          </mxGeometry>
        </mxCell>
        <mxCell id="Bql7_NC1n_iXx1I4UjfZ-17" value="&lt;font style=&quot;font-size: 25px;&quot;&gt;Source code&lt;/font&gt;" style="swimlane;whiteSpace=wrap;html=1;startSize=40;fillColor=#f8cecc;strokeColor=#b85450;strokeWidth=2;" parent="1" vertex="1">
          <mxGeometry x="60" y="240" width="200" height="320" as="geometry">
            <mxRectangle x="50" y="150" width="140" height="30" as="alternateBounds" />
          </mxGeometry>
        </mxCell>
        <mxCell id="Bql7_NC1n_iXx1I4UjfZ-1" value="&lt;font style=&quot;font-size: 25px;&quot;&gt;compiler&lt;/font&gt;" style="ellipse;whiteSpace=wrap;html=1;fillColor=#ffe6cc;strokeColor=#d79b00;" parent="1" vertex="1">
          <mxGeometry x="320" y="440" width="120" height="40" as="geometry" />
        </mxCell>
        <mxCell id="Bql7_NC1n_iXx1I4UjfZ-2" value="&lt;font style=&quot;font-size: 25px;&quot;&gt;compiler&lt;/font&gt;" style="ellipse;whiteSpace=wrap;html=1;fillColor=#ffe6cc;strokeColor=#d79b00;" parent="1" vertex="1">
          <mxGeometry x="320" y="360" width="120" height="40" as="geometry" />
        </mxCell>
        <mxCell id="Bql7_NC1n_iXx1I4UjfZ-3" value="&lt;font style=&quot;font-size: 25px;&quot;&gt;linker&lt;/font&gt;" style="ellipse;whiteSpace=wrap;html=1;fillColor=#ffe6cc;strokeColor=#d79b00;" parent="1" vertex="1">
          <mxGeometry x="760" y="400" width="120" height="40" as="geometry" />
        </mxCell>
        <mxCell id="Bql7_NC1n_iXx1I4UjfZ-4" value="&lt;font style=&quot;font-size: 25px;&quot;&gt;main.o&lt;/font&gt;" style="rounded=0;whiteSpace=wrap;html=1;fillColor=#dae8fc;strokeColor=#6c8ebf;" parent="1" vertex="1">
          <mxGeometry x="510" y="360" width="180" height="40" as="geometry" />
        </mxCell>
        <mxCell id="Bql7_NC1n_iXx1I4UjfZ-5" value="&lt;font style=&quot;font-size: 25px;&quot;&gt;std.pcm&lt;/font&gt;" style="rounded=0;whiteSpace=wrap;html=1;fillColor=#dae8fc;strokeColor=#6c8ebf;" parent="1" vertex="1">
          <mxGeometry x="510" y="440" width="180" height="40" as="geometry" />
        </mxCell>
        <mxCell id="Bql7_NC1n_iXx1I4UjfZ-6" value="&lt;font style=&quot;font-size: 25px;&quot;&gt;main.cpp&lt;/font&gt;" style="rounded=0;whiteSpace=wrap;html=1;fillColor=#dae8fc;strokeColor=#6c8ebf;" parent="1" vertex="1">
          <mxGeometry x="70" y="360" width="180" height="40" as="geometry" />
        </mxCell>
        <mxCell id="Bql7_NC1n_iXx1I4UjfZ-7" value="&lt;font style=&quot;font-size: 25px;&quot;&gt;module std&lt;/font&gt;" style="rounded=0;whiteSpace=wrap;html=1;fillColor=#dae8fc;strokeColor=#6c8ebf;" parent="1" vertex="1">
          <mxGeometry x="70" y="440" width="180" height="40" as="geometry" />
        </mxCell>
        <mxCell id="Bql7_NC1n_iXx1I4UjfZ-8" value="&lt;font style=&quot;font-size: 25px;&quot;&gt;helloworld&lt;/font&gt;" style="rounded=0;whiteSpace=wrap;html=1;fillColor=#dae8fc;strokeColor=#6c8ebf;" parent="1" vertex="1">
          <mxGeometry x="950" y="400" width="180" height="40" as="geometry" />
        </mxCell>
        <mxCell id="Bql7_NC1n_iXx1I4UjfZ-9" value="" style="endArrow=classic;html=1;rounded=0;exitX=1;exitY=0.5;exitDx=0;exitDy=0;entryX=0;entryY=0.5;entryDx=0;entryDy=0;strokeWidth=2;strokeColor=#FFFFFF;" parent="1" source="Bql7_NC1n_iXx1I4UjfZ-6" target="Bql7_NC1n_iXx1I4UjfZ-2" edge="1">
          <mxGeometry width="50" height="50" relative="1" as="geometry">
            <mxPoint x="400" y="500" as="sourcePoint" />
            <mxPoint x="450" y="450" as="targetPoint" />
          </mxGeometry>
        </mxCell>
        <mxCell id="Bql7_NC1n_iXx1I4UjfZ-10" value="" style="endArrow=classic;html=1;rounded=0;exitX=1;exitY=0.5;exitDx=0;exitDy=0;entryX=0;entryY=0.5;entryDx=0;entryDy=0;strokeWidth=2;strokeColor=#FFFFFF;" parent="1" source="Bql7_NC1n_iXx1I4UjfZ-7" target="Bql7_NC1n_iXx1I4UjfZ-1" edge="1">
          <mxGeometry width="50" height="50" relative="1" as="geometry">
            <mxPoint x="400" y="500" as="sourcePoint" />
            <mxPoint x="450" y="450" as="targetPoint" />
          </mxGeometry>
        </mxCell>
        <mxCell id="Bql7_NC1n_iXx1I4UjfZ-11" value="" style="endArrow=classic;html=1;rounded=0;exitX=1;exitY=0.5;exitDx=0;exitDy=0;entryX=0;entryY=0.5;entryDx=0;entryDy=0;strokeWidth=2;strokeColor=#FFFFFF;" parent="1" source="Bql7_NC1n_iXx1I4UjfZ-2" target="Bql7_NC1n_iXx1I4UjfZ-4" edge="1">
          <mxGeometry width="50" height="50" relative="1" as="geometry">
            <mxPoint x="400" y="500" as="sourcePoint" />
            <mxPoint x="450" y="450" as="targetPoint" />
          </mxGeometry>
        </mxCell>
        <mxCell id="Bql7_NC1n_iXx1I4UjfZ-12" value="" style="endArrow=classic;html=1;rounded=0;entryX=0;entryY=0.5;entryDx=0;entryDy=0;exitX=1;exitY=0.5;exitDx=0;exitDy=0;strokeWidth=2;strokeColor=#FFFFFF;" parent="1" source="Bql7_NC1n_iXx1I4UjfZ-1" target="Bql7_NC1n_iXx1I4UjfZ-5" edge="1">
          <mxGeometry width="50" height="50" relative="1" as="geometry">
            <mxPoint x="400" y="500" as="sourcePoint" />
            <mxPoint x="450" y="450" as="targetPoint" />
          </mxGeometry>
        </mxCell>
        <mxCell id="Bql7_NC1n_iXx1I4UjfZ-13" value="" style="endArrow=classic;html=1;rounded=0;entryX=0;entryY=0.5;entryDx=0;entryDy=0;exitX=1;exitY=0.5;exitDx=0;exitDy=0;strokeWidth=2;strokeColor=#FFFFFF;" parent="1" source="Bql7_NC1n_iXx1I4UjfZ-4" target="Bql7_NC1n_iXx1I4UjfZ-3" edge="1">
          <mxGeometry width="50" height="50" relative="1" as="geometry">
            <mxPoint x="400" y="500" as="sourcePoint" />
            <mxPoint x="450" y="450" as="targetPoint" />
          </mxGeometry>
        </mxCell>
        <mxCell id="Bql7_NC1n_iXx1I4UjfZ-14" value="" style="endArrow=classic;html=1;rounded=0;entryX=0;entryY=0.5;entryDx=0;entryDy=0;exitX=1;exitY=0.5;exitDx=0;exitDy=0;strokeWidth=2;strokeColor=#FFFFFF;" parent="1" source="Bql7_NC1n_iXx1I4UjfZ-5" target="Bql7_NC1n_iXx1I4UjfZ-3" edge="1">
          <mxGeometry width="50" height="50" relative="1" as="geometry">
            <mxPoint x="400" y="500" as="sourcePoint" />
            <mxPoint x="450" y="450" as="targetPoint" />
          </mxGeometry>
        </mxCell>
        <mxCell id="Bql7_NC1n_iXx1I4UjfZ-15" value="" style="endArrow=classic;html=1;rounded=0;entryX=0;entryY=0.5;entryDx=0;entryDy=0;strokeWidth=2;strokeColor=#FFFFFF;" parent="1" target="Bql7_NC1n_iXx1I4UjfZ-8" edge="1">
          <mxGeometry width="50" height="50" relative="1" as="geometry">
            <mxPoint x="880" y="420" as="sourcePoint" />
            <mxPoint x="450" y="450" as="targetPoint" />
          </mxGeometry>
        </mxCell>
      </root>
    </mxGraphModel>
  </diagram>
</mxfile>
